<svg width="75" height="16" viewBox="0 0 75 16" fill="none" xmlns="http://www.w3.org/2000/svg">
<g clip-path="url(#clip0_48_34)">
<path d="M15.4237 9.93671C14.3779 14.2224 10.1292 16.8306 5.9338 15.7619C1.74017 14.6934 -0.812773 10.3525 0.233557 6.06702C1.27891 1.78083 5.52761 -0.827623 9.72174 0.24086C13.9168 1.30934 16.4695 5.65077 15.4237 9.93671Z" fill="#FCA014"/>
<path d="M11.2812 6.86126C11.4371 5.79678 10.6437 5.22454 9.559 4.84279L9.91087 3.40082L9.05174 3.18207L8.70917 4.58605C8.48331 4.52855 8.25133 4.4743 8.02083 4.42055L8.36585 3.00732L7.5072 2.78857L7.15508 4.23005C6.96813 4.18655 6.78461 4.14356 6.60647 4.09831L6.60745 4.09381L5.42262 3.79156L5.19408 4.72904C5.19408 4.72904 5.83151 4.87829 5.81806 4.88754C6.16602 4.97629 6.2289 5.21153 6.21838 5.39803L5.81756 7.04076C5.84154 7.04701 5.87262 7.05601 5.90688 7.07001C5.87825 7.06276 5.84767 7.05476 5.8161 7.04701L5.25427 9.34823C5.21169 9.45622 5.10378 9.61822 4.86055 9.55672C4.86912 9.56947 4.23608 9.39747 4.23608 9.39747L3.80957 10.4022L4.9276 10.6869C5.13559 10.7402 5.33942 10.7959 5.54007 10.8484L5.18453 12.3069L6.04269 12.5257L6.39481 11.0827C6.62923 11.1477 6.8568 11.2077 7.07947 11.2642L6.72858 12.7004L7.58771 12.9192L7.94326 11.4634C9.40827 11.7467 10.5099 11.6324 10.9736 10.2787C11.3473 9.18872 10.955 8.55999 10.1842 8.14999C10.7455 8.01775 11.1684 7.6405 11.2812 6.86126ZM9.31822 9.67347C9.05272 10.7635 7.25639 10.1742 6.67401 10.0265L7.14579 8.09424C7.72817 8.24274 9.5957 8.53674 9.31822 9.67347ZM9.58396 6.84551C9.34171 7.83699 7.8466 7.33325 7.36161 7.20975L7.78934 5.45729C8.27434 5.58079 9.83624 5.81128 9.58396 6.84551Z" fill="white"/>
<g opacity="0.5">
<path d="M22.9459 4.84134C23.5809 4.84134 24.1295 4.95759 24.5906 5.18583C25.0538 5.41633 25.436 5.72683 25.7426 6.11732C26.045 6.50982 26.2702 6.96856 26.4155 7.4943C26.5599 8.02154 26.6323 8.58828 26.6323 9.19502C26.6323 10.127 26.4652 11.0075 26.1277 11.8375C25.7903 12.6687 25.3325 13.3897 24.7501 14.0047C24.1682 14.6189 23.4811 15.1032 22.6888 15.4609C21.8976 15.8189 21.0375 15.9979 20.114 15.9979C19.9946 15.9979 19.7847 15.9944 19.4881 15.9882C19.1915 15.9819 18.8507 15.9507 18.4689 15.8979C18.0848 15.8432 17.6786 15.7622 17.2496 15.6537C16.8209 15.5472 16.4137 15.3979 16.0303 15.2084L19.459 0.489662L22.5299 0.00341797L21.3023 5.22659C21.5651 5.10559 21.8299 5.01184 22.0941 4.94359C22.3587 4.87634 22.6425 4.84134 22.9459 4.84134ZM20.37 13.509C20.8325 13.509 21.2683 13.3927 21.6777 13.1645C22.0883 12.936 22.4426 12.6275 22.7394 12.2432C23.0362 11.8572 23.2711 11.4225 23.4424 10.9368C23.6137 10.451 23.7003 9.94426 23.7003 9.41702C23.7003 8.76928 23.5944 8.26404 23.3832 7.8988C23.172 7.53505 22.7813 7.35205 22.2138 7.35205C22.0278 7.35205 21.7883 7.3883 21.4912 7.45305C21.1932 7.5218 20.9264 7.66455 20.6874 7.87929L19.3802 13.4262C19.459 13.4405 19.5287 13.454 19.5882 13.4667C19.6464 13.4805 19.7108 13.4902 19.7749 13.497C19.8427 13.5047 19.9202 13.5087 20.014 13.5087C20.1077 13.5087 20.2249 13.509 20.37 13.509Z" fill="#666666"/>
<path d="M29.817 15.716H26.8838L29.3609 5.06696H32.3141L29.817 15.716ZM31.2443 3.76948C30.8349 3.76948 30.4637 3.64498 30.1344 3.39548C29.8023 3.14748 29.6379 2.76574 29.6379 2.25125C29.6379 1.96825 29.6942 1.70275 29.8057 1.45226C29.919 1.20226 30.0671 0.987019 30.2525 0.804022C30.4378 0.622525 30.6524 0.477524 30.8961 0.368276C31.1413 0.260778 31.4021 0.207031 31.6801 0.207031C32.0893 0.207031 32.4585 0.33153 32.7891 0.581026C33.1185 0.831772 33.2841 1.21352 33.2841 1.72526C33.2841 2.00925 33.2281 2.27575 33.1155 2.52574C33.0037 2.77574 32.8556 2.99098 32.6702 3.17398C32.4864 3.35573 32.2698 3.50023 32.0266 3.60847C31.7812 3.71772 31.5213 3.76948 31.2443 3.76948Z" fill="#666666"/>
<path d="M34.8839 2.41398L37.9561 1.92773L37.2016 5.06669H40.4919L39.8977 7.53614H36.6273L35.7562 11.2611C35.676 11.5716 35.6304 11.8616 35.6177 12.1311C35.6033 12.4018 35.6368 12.6343 35.7161 12.8301C35.7949 13.0263 35.9366 13.1776 36.1421 13.2846C36.3467 13.3933 36.6396 13.4481 37.0238 13.4481C37.3402 13.4481 37.6485 13.4173 37.9465 13.3563C38.2428 13.2963 38.5431 13.2128 38.847 13.1036L39.0658 15.4125C38.6694 15.561 38.2401 15.6888 37.7777 15.7963C37.3145 15.9053 36.7661 15.9578 36.1323 15.9578C35.2211 15.9578 34.5146 15.8195 34.0113 15.5443C33.5087 15.267 33.1534 14.8883 32.9407 14.4088C32.731 13.9311 32.6373 13.3803 32.6635 12.7598C32.6906 12.1378 32.7824 11.4841 32.9407 10.7956L34.8839 2.41398Z" fill="#666666"/>
</g>
<path d="M40.3643 11.4634C40.3643 10.5462 40.5096 9.68119 40.8001 8.87145C41.09 8.06096 41.5077 7.35222 42.0497 6.74398C42.5898 6.13874 43.2478 5.65924 44.0222 5.30725C44.793 4.95726 45.6561 4.78076 46.6072 4.78076C47.2026 4.78076 47.7343 4.83826 48.2022 4.95351C48.672 5.06976 49.097 5.22001 49.4815 5.40851L48.4699 7.75847C48.2056 7.64897 47.9313 7.55247 47.6477 7.46497C47.3638 7.37572 47.0174 7.33272 46.6075 7.33272C45.6284 7.33272 44.8545 7.67747 44.2784 8.3647C43.7046 9.05244 43.4156 9.97818 43.4156 11.1394C43.4156 11.8277 43.561 12.3841 43.8527 12.8099C44.1429 13.2356 44.679 13.4474 45.4574 13.4474C45.8416 13.4474 46.2123 13.4064 46.5674 13.3264C46.9251 13.2454 47.241 13.1434 47.5192 13.0229L47.7382 15.4318C47.3673 15.5788 46.9581 15.7116 46.5094 15.8278C46.0596 15.9401 45.5242 15.9983 44.9034 15.9983C44.0839 15.9983 43.3902 15.8758 42.8227 15.6346C42.255 15.3896 41.786 15.0644 41.4165 14.6524C41.045 14.2394 40.7783 13.7571 40.6134 13.2036C40.4484 12.6506 40.3643 12.0696 40.3643 11.4634Z" fill="#666666"/>
<path d="M53.3939 15.9983C52.6938 15.9983 52.0857 15.8893 51.5699 15.6736C51.0556 15.4578 50.6295 15.1551 50.2926 14.7626C49.9552 14.3721 49.7026 13.9094 49.5296 13.3761C49.3566 12.8431 49.2734 12.2529 49.2734 11.6062C49.2734 10.7949 49.4009 9.98393 49.6586 9.17519C49.915 8.36471 50.2955 7.63647 50.7991 6.98923C51.2988 6.34099 51.9152 5.81099 52.641 5.39775C53.366 4.98726 54.1999 4.78076 55.1367 4.78076C55.824 4.78076 56.4289 4.89001 56.9518 5.10575C57.4723 5.321 57.901 5.62625 58.2399 6.01674C58.5752 6.40924 58.8299 6.86998 59.0012 7.40397C59.1737 7.93597 59.2588 8.5277 59.2588 9.17494C59.2588 9.98368 59.1331 10.7947 58.8835 11.6059C58.6336 12.4131 58.2629 13.1431 57.7735 13.7919C57.2851 14.4391 56.6743 14.9689 55.9407 15.3803C55.2081 15.7918 54.3585 15.9983 53.3939 15.9983ZM54.8599 7.33298C54.4251 7.33298 54.0406 7.46197 53.7115 7.71671C53.3812 7.97446 53.1037 8.29846 52.88 8.6892C52.6539 9.08169 52.4863 9.50969 52.373 9.97493C52.2607 10.4412 52.2057 10.8819 52.2057 11.3007C52.2057 11.9764 52.3123 12.5026 52.5221 12.8814C52.7347 13.2581 53.1167 13.4476 53.6719 13.4476C54.1082 13.4476 54.4907 13.3196 54.8217 13.0621C55.1501 12.8064 55.4278 12.4821 55.6532 12.0906C55.8778 11.7002 56.0469 11.2709 56.1602 10.8049C56.2711 10.3402 56.3276 9.89693 56.3276 9.47894C56.3276 8.80495 56.2214 8.27746 56.0097 7.89921C55.7983 7.52247 55.4146 7.33298 54.8599 7.33298Z" fill="#666666"/>
<path d="M62.4552 15.716H59.5195L61.9966 5.06696H64.9513L62.4552 15.716V15.716ZM63.8803 3.76948C63.4712 3.76948 63.1002 3.64498 62.7713 3.39548C62.441 3.14748 62.2751 2.76574 62.2751 2.25125C62.2751 1.96825 62.3321 1.70275 62.4439 1.45226C62.5557 1.20226 62.7048 0.987019 62.8902 0.804022C63.0745 0.622525 63.2911 0.477524 63.5343 0.368276C63.778 0.260778 64.0389 0.207031 64.3159 0.207031C64.726 0.207031 65.0964 0.33153 65.4263 0.581026C65.7564 0.831772 65.923 1.21352 65.923 1.72526C65.923 2.00925 65.8638 2.27575 65.753 2.52574C65.6421 2.77574 65.4931 2.99098 65.3084 3.17398C65.1224 3.35573 64.9085 3.50023 64.6648 3.60848C64.4191 3.71772 64.1588 3.76948 63.8803 3.76948V3.76948Z" fill="#666666"/>
<path d="M67.0663 5.55103C67.2889 5.48453 67.5375 5.40453 67.8079 5.31754C68.0793 5.23054 68.3825 5.14954 68.7212 5.07654C69.0561 5.00129 69.4342 4.94029 69.85 4.89304C70.2657 4.84479 70.7394 4.82129 71.2658 4.82129C72.8127 4.82129 73.8791 5.28154 74.4679 6.19927C75.0561 7.11701 75.1579 8.37299 74.7762 9.96496L73.4269 15.7149H70.4744L71.7821 10.086C71.8619 9.73447 71.9245 9.39472 71.9708 9.06272C72.0175 8.73373 72.0148 8.44374 71.9602 8.19274C71.9081 7.94475 71.7853 7.74175 71.5946 7.5845C71.4011 7.42975 71.1087 7.352 70.712 7.352C70.3296 7.352 69.9405 7.394 69.5433 7.475L67.6207 15.7146H64.667L67.0663 5.55103Z" fill="#666666"/>
</g>
<defs>
<clipPath id="clip0_48_34">
<rect width="75" height="16" fill="white"/>
</clipPath>
</defs>
</svg>
