<svg width="76" height="19" viewBox="0 0 76 19" fill="none" xmlns="http://www.w3.org/2000/svg">
<path d="M28.4156 4.09033H24.2102C24.071 4.09025 23.9363 4.13917 23.8304 4.22828C23.7246 4.3174 23.6545 4.44085 23.6328 4.57639L21.9319 15.2049C21.9241 15.2542 21.9272 15.3046 21.9411 15.3526C21.9549 15.4006 21.9792 15.4451 22.0121 15.483C22.0451 15.5209 22.086 15.5513 22.132 15.5722C22.178 15.593 22.2281 15.6037 22.2788 15.6037H24.2865C24.4258 15.6037 24.5605 15.5547 24.6664 15.4655C24.7723 15.3762 24.8423 15.2527 24.8639 15.117L25.3226 12.2503C25.3441 12.1148 25.4141 11.9913 25.5198 11.902C25.6256 11.8128 25.7602 11.7637 25.8994 11.7637H27.2307C30.0009 11.7637 31.5997 10.4425 32.0172 7.82427C32.2054 6.67882 32.0252 5.77882 31.481 5.14851C30.8833 4.45639 29.8232 4.09033 28.4156 4.09033ZM28.9008 7.97215C28.6708 9.45942 27.5179 9.45942 26.403 9.45942H25.7684L26.2136 6.68185C26.2267 6.60059 26.2687 6.52658 26.3321 6.47314C26.3956 6.4197 26.4763 6.39033 26.5598 6.39033H26.8507C27.6101 6.39033 28.3265 6.39033 28.6967 6.817C28.9174 7.07154 28.9851 7.44973 28.9008 7.97215ZM40.9864 7.92427H38.9726C38.8891 7.92427 38.8084 7.95364 38.7449 8.00708C38.6814 8.06052 38.6394 8.13452 38.6264 8.21579L38.5372 8.77094L38.3964 8.56973C37.9604 7.94609 36.9882 7.7376 36.0179 7.7376C33.7925 7.7376 31.8918 9.39882 31.5216 11.7291C31.3291 12.8915 31.6028 14.0031 32.2718 14.7782C32.8855 15.4909 33.7636 15.7879 34.8083 15.7879C36.6015 15.7879 37.5958 14.6515 37.5958 14.6515L37.506 15.2031C37.498 15.2524 37.5009 15.3028 37.5146 15.3509C37.5283 15.399 37.5524 15.4436 37.5852 15.4816C37.6181 15.5196 37.6589 15.5501 37.7049 15.5711C37.7509 15.5921 37.8009 15.603 37.8516 15.6031H39.6656C39.8049 15.6031 39.9397 15.5541 40.0455 15.4649C40.1514 15.3756 40.2215 15.252 40.243 15.1164L41.3314 8.32306C41.3394 8.27386 41.3365 8.22353 41.3229 8.17555C41.3092 8.12758 41.2851 8.08309 41.2523 8.04517C41.2195 8.00725 41.1788 7.97681 41.1329 7.95593C41.087 7.93506 41.037 7.92426 40.9864 7.92427ZM38.1793 11.7873C37.985 12.9212 37.0719 13.6825 35.9072 13.6825C35.3224 13.6825 34.8551 13.4976 34.555 13.1473C34.2574 12.7994 34.1442 12.3043 34.2389 11.7528C34.4203 10.6285 35.3489 9.84245 36.4957 9.84245C37.0676 9.84245 37.5324 10.0297 37.8387 10.3831C38.1455 10.74 38.2673 11.2382 38.1793 11.7873ZM51.7119 7.92427H49.6882C49.5927 7.92442 49.4988 7.94752 49.4144 7.99156C49.3301 8.0356 49.2579 8.09925 49.2042 8.177L46.4131 12.2291L45.23 8.33518C45.1937 8.21642 45.1195 8.11233 45.0185 8.03833C44.9175 7.96432 44.795 7.92433 44.6692 7.92427H42.6805C42.6247 7.92412 42.5697 7.93712 42.52 7.96218C42.4703 7.98724 42.4274 8.02363 42.3948 8.06834C42.3623 8.11304 42.3411 8.16475 42.3329 8.21918C42.3247 8.27361 42.3299 8.32917 42.3479 8.38124L44.577 14.8285L42.4813 17.7443C42.4441 17.796 42.422 17.8568 42.4175 17.92C42.4129 17.9833 42.4262 18.0465 42.4557 18.1028C42.4852 18.1592 42.5299 18.2064 42.5849 18.2394C42.6398 18.2723 42.7029 18.2898 42.7673 18.2897H44.7885C44.8829 18.2899 44.9759 18.2674 45.0595 18.2244C45.1431 18.1813 45.2149 18.1189 45.2687 18.0425L51.9997 8.4667C52.0361 8.41489 52.0575 8.35423 52.0615 8.29129C52.0655 8.22835 52.052 8.16553 52.0223 8.10965C51.9927 8.05377 51.9481 8.00695 51.8933 7.97427C51.8386 7.94159 51.7759 7.9243 51.7119 7.92427Z" fill="#022273"/>
<path d="M58.4118 4.09045H54.2058C54.0667 4.09051 53.9321 4.1395 53.8264 4.2286C53.7207 4.3177 53.6507 4.44107 53.629 4.57651L51.9281 15.205C51.9202 15.2542 51.9232 15.3046 51.937 15.3525C51.9507 15.4005 51.9748 15.445 52.0077 15.4829C52.0405 15.5208 52.0813 15.5512 52.1272 15.5721C52.1732 15.593 52.2231 15.6038 52.2737 15.6038H54.4321C54.5295 15.6036 54.6236 15.5693 54.6975 15.5068C54.7715 15.4444 54.8204 15.358 54.8355 15.2632L55.3182 12.2504C55.3397 12.1149 55.4097 11.9914 55.5154 11.9022C55.6212 11.8129 55.7558 11.7639 55.895 11.7638H57.2257C59.9965 11.7638 61.5947 10.4426 62.0128 7.82439C62.2016 6.67893 62.0202 5.77893 61.476 5.14863C60.8789 4.45651 59.8194 4.09045 58.4118 4.09045ZM58.897 7.97227C58.6677 9.45954 57.5147 9.45954 56.3992 9.45954H55.7652L56.2111 6.68196C56.2238 6.6007 56.2657 6.52663 56.3291 6.47316C56.3925 6.41969 56.4732 6.39035 56.5566 6.39045H56.8475C57.6063 6.39045 58.3233 6.39045 58.6935 6.81712C58.9142 7.07166 58.9813 7.44984 58.897 7.97227ZM70.982 7.92439H68.9694C68.8859 7.92416 68.8051 7.95346 68.7417 8.00695C68.6783 8.06045 68.6365 8.13459 68.6238 8.2159L68.5347 8.77106L68.3932 8.56984C67.9572 7.94621 66.9857 7.73772 66.0153 7.73772C63.7899 7.73772 61.8898 9.39893 61.5196 11.7292C61.3278 12.8917 61.6002 14.0032 62.2692 14.7783C62.8842 15.4911 63.761 15.788 64.8058 15.788C66.5989 15.788 67.5932 14.6517 67.5932 14.6517L67.5034 15.2032C67.4954 15.2526 67.4984 15.3031 67.5121 15.3513C67.5259 15.3995 67.5501 15.4441 67.5831 15.4821C67.6161 15.5202 67.657 15.5507 67.7032 15.5716C67.7493 15.5925 67.7995 15.6033 67.8503 15.6032H69.6636C69.8029 15.6031 69.9375 15.554 70.0432 15.4648C70.149 15.3756 70.2189 15.2521 70.2404 15.1165L71.3295 8.32318C71.3372 8.27382 71.334 8.22341 71.3201 8.17539C71.3061 8.12737 71.2818 8.08289 71.2488 8.04501C71.2158 8.00712 71.1749 7.97672 71.1288 7.9559C71.0828 7.93508 71.0327 7.92433 70.982 7.92439ZM68.1749 11.7874C67.9818 12.9214 67.0675 13.6826 65.9028 13.6826C65.3192 13.6826 64.8507 13.4977 64.5506 13.1474C64.253 12.7995 64.1411 12.3044 64.2345 11.7529C64.4172 10.6286 65.3444 9.84257 66.4913 9.84257C67.0631 9.84257 67.528 10.0298 67.8343 10.3832C68.1423 10.7401 68.2641 11.2383 68.1749 11.7874ZM73.3562 4.38196L71.6302 15.205C71.6222 15.2542 71.6253 15.3046 71.639 15.3525C71.6527 15.4005 71.6768 15.445 71.7097 15.4829C71.7425 15.5208 71.7833 15.5512 71.8293 15.5721C71.8752 15.593 71.9252 15.6038 71.9757 15.6038H73.7111C73.9994 15.6038 74.2442 15.3977 74.2885 15.1171L75.9906 4.48924C75.9985 4.43997 75.9954 4.38961 75.9817 4.3416C75.968 4.29359 75.9439 4.24909 75.911 4.21114C75.8782 4.17319 75.8374 4.14269 75.7915 4.12176C75.7456 4.10082 75.6956 4.08993 75.645 4.08984H73.7018C73.6184 4.09013 73.5378 4.11969 73.4745 4.17322C73.4112 4.22675 73.3692 4.30075 73.3562 4.38196Z" fill="#167FC4"/>
<path d="M4.46792 17.6691L4.78952 15.6558L4.07314 15.6394H0.652344L3.02962 0.783032C3.0367 0.737639 3.06009 0.696265 3.09553 0.66645C3.13098 0.636635 3.17611 0.620366 3.22271 0.620608H8.99065C10.9055 0.620608 12.227 1.01334 12.9169 1.78849C13.2404 2.15212 13.4464 2.53212 13.546 2.95031C13.6505 3.38909 13.6524 3.91334 13.5503 4.55273L13.5429 4.5994V5.00909L13.8663 5.1897C14.1133 5.313 14.3352 5.47978 14.5212 5.68182C14.7979 5.99273 14.9769 6.38788 15.0525 6.85637C15.1306 7.33818 15.1048 7.91152 14.9769 8.56061C14.8293 9.30728 14.5907 9.95758 14.2685 10.4897C13.9842 10.9664 13.602 11.3793 13.1463 11.7018C12.7183 12.0012 12.2098 12.2285 11.6348 12.3739C11.0777 12.517 10.4425 12.5891 9.74577 12.5891H9.29688C8.97589 12.5891 8.66413 12.703 8.41939 12.9073C8.175 13.1137 8.01288 13.3989 7.96189 13.7121L7.92807 13.8933L7.35988 17.4418L7.33406 17.5721C7.32729 17.6133 7.31561 17.6339 7.29839 17.6479C7.28171 17.6613 7.2609 17.6688 7.23936 17.6691H4.46792Z" fill="#022273"/>
<path d="M14.173 4.64648C14.1558 4.75497 14.1361 4.86588 14.114 4.97982C13.3533 8.82891 10.751 10.1586 7.42732 10.1586H5.73506C5.3286 10.1586 4.98609 10.4495 4.92276 10.8447L4.05633 16.2604L3.81098 17.7956C3.80121 17.8565 3.80494 17.9187 3.82192 17.9781C3.8389 18.0374 3.86872 18.0924 3.90934 18.1393C3.94996 18.1862 4.0004 18.2238 4.0572 18.2497C4.114 18.2755 4.1758 18.2889 4.23835 18.2889H7.23977C7.59519 18.2889 7.89712 18.0344 7.95308 17.6889L7.98259 17.5386L8.5477 14.0041L8.58398 13.8101C8.63933 13.4635 8.94187 13.2089 9.29729 13.2089H9.74618C12.6541 13.2089 14.9306 12.0453 15.5959 8.678C15.8739 7.27133 15.73 6.09679 14.9945 5.27073C14.7614 5.01519 14.483 4.80365 14.173 4.64648Z" fill="#167FC4"/>
<path d="M13.3764 4.33376C13.1335 4.26451 12.8865 4.21047 12.6367 4.17194C12.1431 4.09718 11.6442 4.06131 11.1449 4.06467H6.62397C6.45192 4.06454 6.2855 4.12508 6.15479 4.23534C6.02408 4.34561 5.9377 4.49832 5.91128 4.66588L4.94955 10.6695L4.92188 10.8447C4.95184 10.6535 5.05021 10.4793 5.1992 10.3535C5.3482 10.2276 5.53797 10.1585 5.73418 10.1586H7.42644C10.7501 10.1586 13.3524 8.8283 14.1131 4.97982C14.1358 4.86588 14.1549 4.75497 14.1721 4.64649C13.9714 4.54275 13.7622 4.45578 13.5467 4.38649C13.4902 4.36801 13.4335 4.35044 13.3764 4.33376Z" fill="#022273"/>
<path d="M5.91178 4.66606C5.93798 4.49845 6.02431 4.34567 6.15508 4.23546C6.28586 4.12525 6.45241 4.06493 6.62447 4.06545H11.1454C11.681 4.06545 12.1809 4.1 12.6372 4.17273C12.9459 4.22055 13.2504 4.29208 13.5478 4.38667C13.7723 4.46 13.9808 4.54667 14.1732 4.64667C14.3995 3.22424 14.1714 2.25576 13.391 1.37879C12.5308 0.413333 10.9781 0 8.99129 0H3.22335C2.81751 0 2.47131 0.290909 2.40858 0.686667L0.00609367 15.6958C-0.00509672 15.7654 -0.000839159 15.8367 0.0185735 15.9046C0.0379862 15.9725 0.0720932 16.0355 0.118548 16.0891C0.165004 16.1428 0.222705 16.1859 0.287682 16.2155C0.35266 16.2451 0.423372 16.2605 0.494955 16.2606H4.05595L4.95005 10.6697L5.91178 4.66606Z" fill="#022273"/>
</svg>
